# xmcd
# 
# Track frame offsets:
#     150
#     18122
#     36182
#     53802
#     71295
#     89265
#     105930
#     122697
#     140165
#     160627
#     178390
#     193917
#     213092
# 
# Disc length: 3081
# 
# Revision: 2
# Processed by: cddbd v1.5.2PL0 Copyright (c) Steve Scherf et al.
# Submitted via: BonkEnc v1.0.8
# 
DISCID=ac0c070d
DTITLE=Roberta Miranda - Pele de Amor
DYEAR=2002
DGENRE=Country
TTITLE0=Eu Acho Que Estou Perdendo Você
TTITLE1=Pele de Amor
TTITLE2=Vício de Amar
TTITLE3=Não Acredito
TTITLE4=Metade Coração, Metade Aço
TTITLE5=Não Tem Jeito, Não
TTITLE6=Quarto e Sala
TTITLE7=Sem a Sombra da Dor
TTITLE8=Além da Cama
TTITLE9=Você Não Vem
TTITLE10=Meu Bem, Meu Mal
TTITLE11=Jogo de Damas
TTITLE12=Ne Me Quite Pas
EXTD=
EXTT0=
EXTT1=
EXTT2=
EXTT3=
EXTT4=
EXTT5=
EXTT6=
EXTT7=
EXTT8=
EXTT9=
EXTT10=
EXTT11=
EXTT12=
PLAYORDER=
